<?xml version="1.0" encoding="UTF-8" standalone="no"?>
<!DOCTYPE svg PUBLIC "-//W3C//DTD SVG 1.1//EN"
 "http://www.w3.org/Graphics/SVG/1.1/DTD/svg11.dtd">
<!-- Generated by graphviz version 2.43.0 (0)
 -->
<!-- Title: G Pages: 1 -->
<svg width="297pt" height="253pt"
 viewBox="0.00 0.00 297.39 253.48" xmlns="http://www.w3.org/2000/svg" xmlns:xlink="http://www.w3.org/1999/xlink">
<g id="graph0" class="graph" transform="scale(1 1) rotate(0) translate(4 249.48)">
<title>G</title>
<polygon fill="white" stroke="transparent" points="-4,4 -4,-249.48 293.39,-249.48 293.39,4 -4,4"/>
<!-- frontend -->
<g id="node1" class="node">
<title>frontend</title>
<ellipse fill="none" stroke="black" cx="144.39" cy="-218.61" rx="101.23" ry="26.74"/>
<text text-anchor="middle" x="144.39" y="-222.41" font-family="Times,serif" font-size="14.00">frontend</text>
<text text-anchor="middle" x="144.39" y="-207.41" font-family="Times,serif" font-size="14.00">HTML, JavaScript</text>
</g>
<!-- server -->
<g id="node2" class="node">
<title>server</title>
<ellipse fill="none" stroke="black" cx="144.39" cy="-113.87" rx="47.25" ry="26.74"/>
<text text-anchor="middle" x="144.39" y="-117.67" font-family="Times,serif" font-size="14.00">server</text>
<text text-anchor="middle" x="144.39" y="-102.67" font-family="Times,serif" font-size="14.00">Python</text>
</g>
<!-- frontend&#45;&gt;server -->
<g id="edge1" class="edge">
<title>frontend&#45;&gt;server</title>
<path fill="none" stroke="black" d="M90.88,-195.65C75.68,-185.97 65.21,-173.42 73.39,-158.74 78.85,-148.95 87.49,-141.08 96.89,-134.85"/>
<polygon fill="black" stroke="black" points="98.89,-137.73 105.67,-129.59 95.29,-131.73 98.89,-137.73"/>
<text text-anchor="middle" x="133.89" y="-162.54" font-family="Times,serif" font-size="14.00">HTTP+JSON API</text>
</g>
<!-- server&#45;&gt;frontend -->
<g id="edge2" class="edge">
<title>server&#45;&gt;frontend</title>
<path fill="none" stroke="black" d="M176.37,-133.86C189.92,-144.54 201.2,-158.72 194.39,-173.74 192.41,-178.11 189.76,-182.22 186.7,-186.04"/>
<polygon fill="black" stroke="black" points="184.09,-183.7 179.94,-193.45 189.26,-188.42 184.09,-183.7"/>
<text text-anchor="middle" x="240.89" y="-162.54" font-family="Times,serif" font-size="14.00">Long&#45;polling</text>
</g>
<!-- database -->
<g id="node3" class="node">
<title>database</title>
<ellipse fill="none" stroke="black" cx="75.39" cy="-18" rx="75.29" ry="18"/>
<text text-anchor="middle" x="75.39" y="-14.3" font-family="Times,serif" font-size="14.00">SQL database</text>
</g>
<!-- server&#45;&gt;database -->
<g id="edge3" class="edge">
<title>server&#45;&gt;database</title>
<path fill="none" stroke="black" d="M126.62,-88.7C116.57,-75.02 104.02,-57.94 93.85,-44.12"/>
<polygon fill="black" stroke="black" points="96.62,-41.97 87.88,-35.99 90.98,-46.12 96.62,-41.97"/>
</g>
<!-- Calibre -->
<g id="node4" class="node">
<title>Calibre</title>
<ellipse fill="none" stroke="black" cx="213.39" cy="-18" rx="44.39" ry="18"/>
<text text-anchor="middle" x="213.39" y="-14.3" font-family="Times,serif" font-size="14.00">Calibre</text>
</g>
<!-- server&#45;&gt;Calibre -->
<g id="edge4" class="edge">
<title>server&#45;&gt;Calibre</title>
<path fill="none" stroke="black" d="M162.16,-88.7C172.35,-74.84 185.1,-57.49 195.33,-43.57"/>
<polygon fill="black" stroke="black" points="198.23,-45.54 201.33,-35.41 192.59,-41.39 198.23,-45.54"/>
<text text-anchor="middle" x="237.89" y="-57.8" font-family="Times,serif" font-size="14.00">Command&#45;line</text>
</g>
</g>
</svg>
